<svg width="34" height="22" viewBox="0 0 34 22" fill="none" xmlns="http://www.w3.org/2000/svg">
<path fill-rule="evenodd" clip-rule="evenodd" d="M0.375 11C0.375 10.6851 0.500111 10.383 0.722811 10.1603C0.94551 9.93765 1.24756 9.81253 1.5625 9.81253H29.5709L22.0968 2.34079C21.8738 2.1178 21.7485 1.81538 21.7485 1.50004C21.7485 1.18469 21.8738 0.882266 22.0968 0.659285C22.3197 0.436304 22.6222 0.311035 22.9375 0.311035C23.2528 0.311035 23.5553 0.436304 23.7783 0.659285L33.2783 10.1593C33.3888 10.2696 33.4766 10.4006 33.5364 10.5449C33.5963 10.6892 33.6271 10.8438 33.6271 11C33.6271 11.1562 33.5963 11.3109 33.5364 11.4552C33.4766 11.5994 33.3888 11.7305 33.2783 11.8408L23.7783 21.3408C23.5553 21.5638 23.2528 21.689 22.9375 21.689C22.6222 21.689 22.3197 21.5638 22.0968 21.3408C21.8738 21.1178 21.7485 20.8154 21.7485 20.5C21.7485 20.1847 21.8738 19.8823 22.0968 19.6593L29.5709 12.1875H1.5625C1.24756 12.1875 0.94551 12.0624 0.722811 11.8397C0.500111 11.617 0.375 11.315 0.375 11Z" fill="white"/>
</svg>
